<?xml version="1.0" encoding="UTF-8"?>
<mxfile host="app.diagrams.net" modified="2023-09-29T00:57:08.092Z" agent="Mozilla/5.0 (Windows NT 10.0; Win64; x64) AppleWebKit/537.36 (KHTML, like Gecko) Chrome/117.0.0.0 Safari/537.36" etag="moUzXSSDJ8RpOOKCtilI" version="21.8.2" type="google">
  <diagram name="PÃ¡gina-1" id="hq1Q8Xl8A2QX03Ed4B6E">
    <mxGraphModel dx="2587" dy="956" grid="1" gridSize="10" guides="1" tooltips="1" connect="1" arrows="1" fold="1" page="1" pageScale="1" pageWidth="827" pageHeight="1169" math="0" shadow="0">
      <root>
        <mxCell id="0" />
        <mxCell id="1" parent="0" />
        <mxCell id="QEcMw-lRMphkw9W2kkEJ-9" style="edgeStyle=orthogonalEdgeStyle;rounded=1;orthogonalLoop=1;jettySize=auto;html=1;entryX=0.5;entryY=0;entryDx=0;entryDy=0;entryPerimeter=0;endArrow=none;endFill=0;strokeWidth=1;" parent="1" source="QEcMw-lRMphkw9W2kkEJ-1" target="QEcMw-lRMphkw9W2kkEJ-6" edge="1">
          <mxGeometry relative="1" as="geometry" />
        </mxCell>
        <mxCell id="QEcMw-lRMphkw9W2kkEJ-65" value="(1,n)" style="edgeLabel;html=1;align=center;verticalAlign=middle;resizable=0;points=[];fontSize=18;fontFamily=Helvetica;fontColor=default;" parent="QEcMw-lRMphkw9W2kkEJ-9" connectable="0" vertex="1">
          <mxGeometry x="-0.3533" relative="1" as="geometry">
            <mxPoint as="offset" />
          </mxGeometry>
        </mxCell>
        <mxCell id="QEcMw-lRMphkw9W2kkEJ-1" value="CATEGORIA" style="rounded=0;whiteSpace=wrap;html=1;fillColor=#dae8fc;strokeColor=#6c8ebf;" parent="1" vertex="1">
          <mxGeometry x="-86" y="140" width="120" height="60" as="geometry" />
        </mxCell>
        <mxCell id="QEcMw-lRMphkw9W2kkEJ-11" style="edgeStyle=orthogonalEdgeStyle;shape=connector;rounded=0;orthogonalLoop=1;jettySize=auto;html=1;exitX=1;exitY=0.5;exitDx=0;exitDy=0;entryX=0;entryY=0.5;entryDx=0;entryDy=0;entryPerimeter=0;labelBackgroundColor=default;strokeColor=default;strokeWidth=1;fontFamily=Helvetica;fontSize=11;fontColor=default;endArrow=none;endFill=0;" parent="1" source="QEcMw-lRMphkw9W2kkEJ-2" edge="1">
          <mxGeometry relative="1" as="geometry">
            <mxPoint x="180" y="420" as="targetPoint" />
          </mxGeometry>
        </mxCell>
        <mxCell id="QEcMw-lRMphkw9W2kkEJ-68" value="(1,n)" style="edgeLabel;html=1;align=center;verticalAlign=middle;resizable=0;points=[];fontSize=18;fontFamily=Helvetica;fontColor=default;" parent="QEcMw-lRMphkw9W2kkEJ-11" connectable="0" vertex="1">
          <mxGeometry x="-0.6142" y="2" relative="1" as="geometry">
            <mxPoint x="8" y="2" as="offset" />
          </mxGeometry>
        </mxCell>
        <mxCell id="QEcMw-lRMphkw9W2kkEJ-38" style="edgeStyle=orthogonalEdgeStyle;shape=connector;rounded=1;orthogonalLoop=1;jettySize=auto;html=1;exitX=0.5;exitY=1;exitDx=0;exitDy=0;entryX=0.5;entryY=0;entryDx=0;entryDy=0;entryPerimeter=0;labelBackgroundColor=default;strokeColor=default;strokeWidth=1;fontFamily=Helvetica;fontSize=11;fontColor=default;endArrow=none;endFill=0;" parent="1" source="QEcMw-lRMphkw9W2kkEJ-2" target="QEcMw-lRMphkw9W2kkEJ-27" edge="1">
          <mxGeometry relative="1" as="geometry">
            <Array as="points">
              <mxPoint x="-26" y="480" />
              <mxPoint x="20" y="480" />
              <mxPoint x="20" y="550" />
            </Array>
          </mxGeometry>
        </mxCell>
        <mxCell id="QEcMw-lRMphkw9W2kkEJ-82" value="" style="edgeStyle=orthogonalEdgeStyle;shape=connector;rounded=0;orthogonalLoop=1;jettySize=auto;html=1;labelBackgroundColor=default;strokeColor=default;strokeWidth=1;fontFamily=Helvetica;fontSize=18;fontColor=default;endArrow=none;endFill=0;" parent="1" source="QEcMw-lRMphkw9W2kkEJ-2" target="QEcMw-lRMphkw9W2kkEJ-19" edge="1">
          <mxGeometry relative="1" as="geometry" />
        </mxCell>
        <mxCell id="QEcMw-lRMphkw9W2kkEJ-83" style="edgeStyle=orthogonalEdgeStyle;shape=connector;rounded=1;orthogonalLoop=1;jettySize=auto;html=1;exitX=0.5;exitY=1;exitDx=0;exitDy=0;entryX=1;entryY=0.5;entryDx=0;entryDy=0;entryPerimeter=0;labelBackgroundColor=default;strokeColor=default;strokeWidth=1;fontFamily=Helvetica;fontSize=18;fontColor=default;endArrow=none;endFill=0;" parent="1" source="QEcMw-lRMphkw9W2kkEJ-2" target="QEcMw-lRMphkw9W2kkEJ-22" edge="1">
          <mxGeometry relative="1" as="geometry">
            <Array as="points">
              <mxPoint x="-26" y="510" />
              <mxPoint x="-100" y="510" />
            </Array>
          </mxGeometry>
        </mxCell>
        <mxCell id="QEcMw-lRMphkw9W2kkEJ-85" style="edgeStyle=orthogonalEdgeStyle;shape=connector;rounded=1;orthogonalLoop=1;jettySize=auto;html=1;exitX=0.5;exitY=1;exitDx=0;exitDy=0;entryX=0.5;entryY=0;entryDx=0;entryDy=0;entryPerimeter=0;labelBackgroundColor=default;strokeColor=default;strokeWidth=1;fontFamily=Helvetica;fontSize=18;fontColor=default;endArrow=none;endFill=0;" parent="1" source="QEcMw-lRMphkw9W2kkEJ-2" target="QEcMw-lRMphkw9W2kkEJ-24" edge="1">
          <mxGeometry relative="1" as="geometry">
            <Array as="points">
              <mxPoint x="-26" y="530" />
              <mxPoint x="-80" y="530" />
            </Array>
          </mxGeometry>
        </mxCell>
        <mxCell id="QEcMw-lRMphkw9W2kkEJ-2" value="PRODUTO" style="rounded=0;whiteSpace=wrap;html=1;fillColor=#dae8fc;strokeColor=#6c8ebf;" parent="1" vertex="1">
          <mxGeometry x="-86" y="390" width="120" height="60" as="geometry" />
        </mxCell>
        <mxCell id="QEcMw-lRMphkw9W2kkEJ-55" style="edgeStyle=orthogonalEdgeStyle;shape=connector;rounded=1;orthogonalLoop=1;jettySize=auto;html=1;exitX=0.25;exitY=0;exitDx=0;exitDy=0;entryX=0.5;entryY=1;entryDx=0;entryDy=0;entryPerimeter=0;labelBackgroundColor=default;strokeColor=default;strokeWidth=1;fontFamily=Helvetica;fontSize=11;fontColor=default;endArrow=none;endFill=0;" parent="1" source="QEcMw-lRMphkw9W2kkEJ-3" target="QEcMw-lRMphkw9W2kkEJ-20" edge="1">
          <mxGeometry relative="1" as="geometry" />
        </mxCell>
        <mxCell id="QEcMw-lRMphkw9W2kkEJ-56" style="edgeStyle=orthogonalEdgeStyle;shape=connector;rounded=1;orthogonalLoop=1;jettySize=auto;html=1;exitX=0.5;exitY=0;exitDx=0;exitDy=0;entryX=0.5;entryY=1;entryDx=0;entryDy=0;entryPerimeter=0;labelBackgroundColor=default;strokeColor=default;strokeWidth=1;fontFamily=Helvetica;fontSize=11;fontColor=default;endArrow=none;endFill=0;" parent="1" source="QEcMw-lRMphkw9W2kkEJ-3" target="QEcMw-lRMphkw9W2kkEJ-28" edge="1">
          <mxGeometry relative="1" as="geometry" />
        </mxCell>
        <mxCell id="QEcMw-lRMphkw9W2kkEJ-58" style="edgeStyle=orthogonalEdgeStyle;shape=connector;rounded=1;orthogonalLoop=1;jettySize=auto;html=1;exitX=0.5;exitY=0;exitDx=0;exitDy=0;entryX=0.5;entryY=1;entryDx=0;entryDy=0;entryPerimeter=0;labelBackgroundColor=default;strokeColor=default;strokeWidth=1;fontFamily=Helvetica;fontSize=11;fontColor=default;endArrow=none;endFill=0;" parent="1" source="QEcMw-lRMphkw9W2kkEJ-3" target="QEcMw-lRMphkw9W2kkEJ-25" edge="1">
          <mxGeometry relative="1" as="geometry" />
        </mxCell>
        <mxCell id="QEcMw-lRMphkw9W2kkEJ-60" style="edgeStyle=orthogonalEdgeStyle;shape=connector;rounded=1;orthogonalLoop=1;jettySize=auto;html=1;exitX=1;exitY=0.5;exitDx=0;exitDy=0;entryX=0.5;entryY=1;entryDx=0;entryDy=0;entryPerimeter=0;labelBackgroundColor=default;strokeColor=default;strokeWidth=1;fontFamily=Helvetica;fontSize=11;fontColor=default;endArrow=none;endFill=0;" parent="1" source="QEcMw-lRMphkw9W2kkEJ-3" target="QEcMw-lRMphkw9W2kkEJ-42" edge="1">
          <mxGeometry relative="1" as="geometry" />
        </mxCell>
        <mxCell id="QEcMw-lRMphkw9W2kkEJ-3" value="VENDA" style="rounded=0;whiteSpace=wrap;html=1;fillColor=#dae8fc;strokeColor=#6c8ebf;" parent="1" vertex="1">
          <mxGeometry x="350" y="390" width="120" height="60" as="geometry" />
        </mxCell>
        <mxCell id="QEcMw-lRMphkw9W2kkEJ-47" style="edgeStyle=orthogonalEdgeStyle;shape=connector;rounded=1;orthogonalLoop=1;jettySize=auto;html=1;exitX=0.5;exitY=0;exitDx=0;exitDy=0;entryX=0.5;entryY=1;entryDx=0;entryDy=0;entryPerimeter=0;labelBackgroundColor=default;strokeColor=default;strokeWidth=1;fontFamily=Helvetica;fontSize=11;fontColor=default;endArrow=none;endFill=0;" parent="1" source="QEcMw-lRMphkw9W2kkEJ-4" target="QEcMw-lRMphkw9W2kkEJ-21" edge="1">
          <mxGeometry relative="1" as="geometry" />
        </mxCell>
        <mxCell id="QEcMw-lRMphkw9W2kkEJ-49" style="edgeStyle=orthogonalEdgeStyle;shape=connector;rounded=1;orthogonalLoop=1;jettySize=auto;html=1;exitX=0.5;exitY=0;exitDx=0;exitDy=0;entryX=0;entryY=0.5;entryDx=0;entryDy=0;entryPerimeter=0;labelBackgroundColor=default;strokeColor=default;strokeWidth=1;fontFamily=Helvetica;fontSize=11;fontColor=default;endArrow=none;endFill=0;" parent="1" source="QEcMw-lRMphkw9W2kkEJ-4" target="QEcMw-lRMphkw9W2kkEJ-23" edge="1">
          <mxGeometry relative="1" as="geometry" />
        </mxCell>
        <mxCell id="QEcMw-lRMphkw9W2kkEJ-50" style="edgeStyle=orthogonalEdgeStyle;shape=connector;rounded=1;orthogonalLoop=1;jettySize=auto;html=1;exitX=1;exitY=0.5;exitDx=0;exitDy=0;entryX=0;entryY=0.5;entryDx=0;entryDy=0;entryPerimeter=0;labelBackgroundColor=default;strokeColor=default;strokeWidth=1;fontFamily=Helvetica;fontSize=11;fontColor=default;endArrow=none;endFill=0;" parent="1" source="QEcMw-lRMphkw9W2kkEJ-4" edge="1">
          <mxGeometry relative="1" as="geometry">
            <mxPoint x="799.9999999999999" y="580" as="targetPoint" />
          </mxGeometry>
        </mxCell>
        <mxCell id="QEcMw-lRMphkw9W2kkEJ-51" style="edgeStyle=orthogonalEdgeStyle;shape=connector;rounded=1;orthogonalLoop=1;jettySize=auto;html=1;exitX=1;exitY=0.5;exitDx=0;exitDy=0;entryX=0;entryY=0.5;entryDx=0;entryDy=0;entryPerimeter=0;labelBackgroundColor=default;strokeColor=default;strokeWidth=1;fontFamily=Helvetica;fontSize=11;fontColor=default;endArrow=none;endFill=0;" parent="1" source="QEcMw-lRMphkw9W2kkEJ-4" target="QEcMw-lRMphkw9W2kkEJ-45" edge="1">
          <mxGeometry relative="1" as="geometry" />
        </mxCell>
        <mxCell id="QEcMw-lRMphkw9W2kkEJ-52" style="edgeStyle=orthogonalEdgeStyle;shape=connector;rounded=1;orthogonalLoop=1;jettySize=auto;html=1;exitX=1;exitY=0.5;exitDx=0;exitDy=0;labelBackgroundColor=default;strokeColor=default;strokeWidth=1;fontFamily=Helvetica;fontSize=11;fontColor=default;endArrow=none;endFill=0;entryX=0;entryY=0.5;entryDx=0;entryDy=0;entryPerimeter=0;" parent="1" source="QEcMw-lRMphkw9W2kkEJ-4" target="QEcMw-lRMphkw9W2kkEJ-46" edge="1">
          <mxGeometry relative="1" as="geometry">
            <mxPoint x="670" y="730" as="targetPoint" />
          </mxGeometry>
        </mxCell>
        <mxCell id="iTK9fJuJbBGp3X5oRMWE-2" style="edgeStyle=orthogonalEdgeStyle;rounded=1;orthogonalLoop=1;jettySize=auto;html=1;exitX=0.5;exitY=0;exitDx=0;exitDy=0;entryX=1;entryY=0.5;entryDx=0;entryDy=0;entryPerimeter=0;endArrow=none;endFill=0;" parent="1" source="QEcMw-lRMphkw9W2kkEJ-4" target="iTK9fJuJbBGp3X5oRMWE-1" edge="1">
          <mxGeometry relative="1" as="geometry" />
        </mxCell>
        <mxCell id="QEcMw-lRMphkw9W2kkEJ-4" value="FUNCIONARIO" style="rounded=0;whiteSpace=wrap;html=1;fillColor=#dae8fc;strokeColor=#6c8ebf;" parent="1" vertex="1">
          <mxGeometry x="560" y="550" width="120" height="60" as="geometry" />
        </mxCell>
        <mxCell id="QEcMw-lRMphkw9W2kkEJ-10" style="edgeStyle=orthogonalEdgeStyle;shape=connector;rounded=0;orthogonalLoop=1;jettySize=auto;html=1;exitX=0.5;exitY=1;exitDx=0;exitDy=0;exitPerimeter=0;entryX=0.5;entryY=0;entryDx=0;entryDy=0;labelBackgroundColor=default;strokeColor=default;strokeWidth=1;fontFamily=Helvetica;fontSize=11;fontColor=default;endArrow=none;endFill=0;" parent="1" source="QEcMw-lRMphkw9W2kkEJ-6" target="QEcMw-lRMphkw9W2kkEJ-2" edge="1">
          <mxGeometry relative="1" as="geometry" />
        </mxCell>
        <mxCell id="QEcMw-lRMphkw9W2kkEJ-67" value="(0,n)" style="edgeLabel;html=1;align=center;verticalAlign=middle;resizable=0;points=[];fontSize=18;fontFamily=Helvetica;fontColor=default;" parent="QEcMw-lRMphkw9W2kkEJ-10" connectable="0" vertex="1">
          <mxGeometry x="0.2967" relative="1" as="geometry">
            <mxPoint as="offset" />
          </mxGeometry>
        </mxCell>
        <mxCell id="QEcMw-lRMphkw9W2kkEJ-6" value="" style="strokeWidth=1;html=1;shape=mxgraph.flowchart.decision;whiteSpace=wrap;strokeColor=#33FF33;" parent="1" vertex="1">
          <mxGeometry x="-56" y="275" width="60" height="40" as="geometry" />
        </mxCell>
        <mxCell id="QEcMw-lRMphkw9W2kkEJ-12" style="edgeStyle=orthogonalEdgeStyle;shape=connector;rounded=0;orthogonalLoop=1;jettySize=auto;html=1;exitX=1;exitY=0.5;exitDx=0;exitDy=0;exitPerimeter=0;entryX=0;entryY=0.5;entryDx=0;entryDy=0;labelBackgroundColor=default;strokeColor=default;strokeWidth=1;fontFamily=Helvetica;fontSize=11;fontColor=default;endArrow=none;endFill=0;" parent="1" target="QEcMw-lRMphkw9W2kkEJ-3" edge="1">
          <mxGeometry relative="1" as="geometry">
            <mxPoint x="210" y="420" as="sourcePoint" />
          </mxGeometry>
        </mxCell>
        <mxCell id="QEcMw-lRMphkw9W2kkEJ-69" value="(0,n)" style="edgeLabel;html=1;align=center;verticalAlign=middle;resizable=0;points=[];fontSize=18;fontFamily=Helvetica;fontColor=default;" parent="QEcMw-lRMphkw9W2kkEJ-12" connectable="0" vertex="1">
          <mxGeometry x="0.5905" relative="1" as="geometry">
            <mxPoint x="-12" as="offset" />
          </mxGeometry>
        </mxCell>
        <mxCell id="QEcMw-lRMphkw9W2kkEJ-63" style="edgeStyle=orthogonalEdgeStyle;shape=connector;rounded=0;orthogonalLoop=1;jettySize=auto;html=1;exitX=0.5;exitY=1;exitDx=0;exitDy=0;exitPerimeter=0;entryX=0.5;entryY=0;entryDx=0;entryDy=0;entryPerimeter=0;labelBackgroundColor=default;strokeColor=default;strokeWidth=1;fontFamily=Helvetica;fontSize=11;fontColor=default;endArrow=none;endFill=0;" parent="1" target="QEcMw-lRMphkw9W2kkEJ-62" edge="1">
          <mxGeometry relative="1" as="geometry">
            <mxPoint x="195" y="435" as="sourcePoint" />
          </mxGeometry>
        </mxCell>
        <mxCell id="QEcMw-lRMphkw9W2kkEJ-64" style="edgeStyle=orthogonalEdgeStyle;shape=connector;rounded=1;orthogonalLoop=1;jettySize=auto;html=1;exitX=0.5;exitY=1;exitDx=0;exitDy=0;exitPerimeter=0;entryX=0.5;entryY=0;entryDx=0;entryDy=0;entryPerimeter=0;labelBackgroundColor=default;strokeColor=default;strokeWidth=1;fontFamily=Helvetica;fontSize=11;fontColor=default;endArrow=none;endFill=0;" parent="1" source="QEcMw-lRMphkw9W2kkEJ-73" target="QEcMw-lRMphkw9W2kkEJ-61" edge="1">
          <mxGeometry relative="1" as="geometry">
            <mxPoint x="195" y="435" as="sourcePoint" />
            <Array as="points">
              <mxPoint x="195" y="470" />
              <mxPoint x="290" y="470" />
            </Array>
          </mxGeometry>
        </mxCell>
        <mxCell id="QEcMw-lRMphkw9W2kkEJ-17" style="edgeStyle=orthogonalEdgeStyle;shape=connector;orthogonalLoop=1;jettySize=auto;html=1;exitX=0.5;exitY=1;exitDx=0;exitDy=0;exitPerimeter=0;entryX=0;entryY=0.5;entryDx=0;entryDy=0;labelBackgroundColor=default;strokeColor=default;strokeWidth=1;fontFamily=Helvetica;fontSize=11;fontColor=default;endArrow=none;endFill=0;rounded=1;" parent="1" source="QEcMw-lRMphkw9W2kkEJ-15" target="QEcMw-lRMphkw9W2kkEJ-1" edge="1">
          <mxGeometry relative="1" as="geometry" />
        </mxCell>
        <mxCell id="QEcMw-lRMphkw9W2kkEJ-15" value="id" style="strokeWidth=4;html=1;shape=mxgraph.flowchart.start_1;whiteSpace=wrap;fontFamily=Helvetica;fontSize=11;fontColor=default;strokeColor=#f9ab24;" parent="1" vertex="1">
          <mxGeometry x="-166" y="80" width="80" height="50" as="geometry" />
        </mxCell>
        <mxCell id="QEcMw-lRMphkw9W2kkEJ-18" style="edgeStyle=orthogonalEdgeStyle;shape=connector;rounded=1;orthogonalLoop=1;jettySize=auto;html=1;exitX=0.5;exitY=1;exitDx=0;exitDy=0;exitPerimeter=0;entryX=0.5;entryY=0;entryDx=0;entryDy=0;labelBackgroundColor=default;strokeColor=default;strokeWidth=1;fontFamily=Helvetica;fontSize=11;fontColor=default;endArrow=none;endFill=0;" parent="1" source="QEcMw-lRMphkw9W2kkEJ-16" target="QEcMw-lRMphkw9W2kkEJ-1" edge="1">
          <mxGeometry relative="1" as="geometry" />
        </mxCell>
        <mxCell id="QEcMw-lRMphkw9W2kkEJ-16" value="nome" style="strokeWidth=2;html=1;shape=mxgraph.flowchart.start_1;whiteSpace=wrap;fontFamily=Helvetica;fontSize=11;fontColor=default;strokeColor=#f9ab24;" parent="1" vertex="1">
          <mxGeometry x="-66" y="40" width="80" height="50" as="geometry" />
        </mxCell>
        <mxCell id="QEcMw-lRMphkw9W2kkEJ-19" value="id" style="strokeWidth=4;html=1;shape=mxgraph.flowchart.start_1;whiteSpace=wrap;fontFamily=Helvetica;fontSize=11;fontColor=default;strokeColor=#f9ab24;" parent="1" vertex="1">
          <mxGeometry x="-210" y="395" width="80" height="50" as="geometry" />
        </mxCell>
        <mxCell id="QEcMw-lRMphkw9W2kkEJ-20" value="id" style="strokeWidth=4;html=1;shape=mxgraph.flowchart.start_1;whiteSpace=wrap;fontFamily=Helvetica;fontSize=11;fontColor=default;strokeColor=#f9ab24;" parent="1" vertex="1">
          <mxGeometry x="270" y="270" width="80" height="50" as="geometry" />
        </mxCell>
        <mxCell id="QEcMw-lRMphkw9W2kkEJ-21" value="nome" style="strokeWidth=2;html=1;shape=mxgraph.flowchart.start_1;whiteSpace=wrap;fontFamily=Helvetica;fontSize=11;fontColor=default;strokeColor=#f9ab24;" parent="1" vertex="1">
          <mxGeometry x="580" y="430" width="80" height="50" as="geometry" />
        </mxCell>
        <mxCell id="QEcMw-lRMphkw9W2kkEJ-22" value="nome" style="strokeWidth=2;html=1;shape=mxgraph.flowchart.start_1;whiteSpace=wrap;fontFamily=Helvetica;fontSize=11;fontColor=default;strokeColor=#f9ab24;" parent="1" vertex="1">
          <mxGeometry x="-180" y="480" width="80" height="50" as="geometry" />
        </mxCell>
        <mxCell id="QEcMw-lRMphkw9W2kkEJ-23" value="login" style="strokeWidth=2;html=1;shape=mxgraph.flowchart.start_1;whiteSpace=wrap;fontFamily=Helvetica;fontSize=11;fontColor=default;strokeColor=#f9ab24;" parent="1" vertex="1">
          <mxGeometry x="680" y="490" width="80" height="50" as="geometry" />
        </mxCell>
        <mxCell id="QEcMw-lRMphkw9W2kkEJ-24" value="preÃ§o" style="strokeWidth=2;html=1;shape=mxgraph.flowchart.start_1;whiteSpace=wrap;fontFamily=Helvetica;fontSize=11;fontColor=default;strokeColor=#f9ab24;" parent="1" vertex="1">
          <mxGeometry x="-120" y="550" width="80" height="50" as="geometry" />
        </mxCell>
        <mxCell id="QEcMw-lRMphkw9W2kkEJ-25" value="preÃ§o_total" style="strokeWidth=2;html=1;shape=mxgraph.flowchart.start_1;whiteSpace=wrap;fontFamily=Helvetica;fontSize=11;fontColor=default;strokeColor=#f9ab24;" parent="1" vertex="1">
          <mxGeometry x="450" y="245" width="80" height="50" as="geometry" />
        </mxCell>
        <mxCell id="QEcMw-lRMphkw9W2kkEJ-27" value="quantidade&lt;br&gt;disponivel" style="strokeWidth=2;html=1;shape=mxgraph.flowchart.start_1;whiteSpace=wrap;fontFamily=Helvetica;fontSize=11;fontColor=default;strokeColor=#f9ab24;" parent="1" vertex="1">
          <mxGeometry x="-10" y="550" width="80" height="50" as="geometry" />
        </mxCell>
        <mxCell id="QEcMw-lRMphkw9W2kkEJ-28" value="data" style="strokeWidth=2;html=1;shape=mxgraph.flowchart.start_1;whiteSpace=wrap;fontFamily=Helvetica;fontSize=11;fontColor=default;strokeColor=#f9ab24;" parent="1" vertex="1">
          <mxGeometry x="350" y="220" width="80" height="50" as="geometry" />
        </mxCell>
        <mxCell id="QEcMw-lRMphkw9W2kkEJ-42" value="desconto" style="strokeWidth=2;html=1;shape=mxgraph.flowchart.start_1;whiteSpace=wrap;fontFamily=Helvetica;fontSize=11;fontColor=default;strokeColor=#f9ab24;" parent="1" vertex="1">
          <mxGeometry x="510" y="330" width="80" height="50" as="geometry" />
        </mxCell>
        <mxCell id="QEcMw-lRMphkw9W2kkEJ-44" value="senha" style="strokeWidth=2;html=1;shape=mxgraph.flowchart.start_1;whiteSpace=wrap;fontFamily=Helvetica;fontSize=11;fontColor=default;strokeColor=#f9ab24;" parent="1" vertex="1">
          <mxGeometry x="793.9999999999999" y="555" width="80" height="50" as="geometry" />
        </mxCell>
        <mxCell id="QEcMw-lRMphkw9W2kkEJ-45" value="endereÃ§o" style="strokeWidth=2;html=1;shape=mxgraph.flowchart.start_1;whiteSpace=wrap;fontFamily=Helvetica;fontSize=11;fontColor=default;strokeColor=#f9ab24;" parent="1" vertex="1">
          <mxGeometry x="730" y="610" width="80" height="50" as="geometry" />
        </mxCell>
        <mxCell id="QEcMw-lRMphkw9W2kkEJ-46" value="telefone" style="strokeWidth=2;html=1;shape=mxgraph.flowchart.start_1;whiteSpace=wrap;fontFamily=Helvetica;fontSize=11;fontColor=default;strokeColor=#f9ab24;" parent="1" vertex="1">
          <mxGeometry x="730" y="680" width="80" height="50" as="geometry" />
        </mxCell>
        <mxCell id="QEcMw-lRMphkw9W2kkEJ-61" value="preÃ§o" style="strokeWidth=2;html=1;shape=mxgraph.flowchart.start_1;whiteSpace=wrap;fontFamily=Helvetica;fontSize=11;fontColor=default;strokeColor=#f9ab24;" parent="1" vertex="1">
          <mxGeometry x="250" y="490" width="80" height="50" as="geometry" />
        </mxCell>
        <mxCell id="QEcMw-lRMphkw9W2kkEJ-62" value="quantidade" style="strokeWidth=2;html=1;shape=mxgraph.flowchart.start_1;whiteSpace=wrap;fontFamily=Helvetica;fontSize=11;fontColor=default;strokeColor=#f9ab24;" parent="1" vertex="1">
          <mxGeometry x="155" y="535" width="80" height="50" as="geometry" />
        </mxCell>
        <mxCell id="QEcMw-lRMphkw9W2kkEJ-73" value="" style="strokeWidth=1;html=1;shape=mxgraph.flowchart.decision;whiteSpace=wrap;strokeColor=#33FF33;" parent="1" vertex="1">
          <mxGeometry x="165" y="400" width="60" height="40" as="geometry" />
        </mxCell>
        <mxCell id="QEcMw-lRMphkw9W2kkEJ-77" value="" style="edgeStyle=orthogonalEdgeStyle;shape=connector;rounded=0;orthogonalLoop=1;jettySize=auto;html=1;exitX=0.5;exitY=1;exitDx=0;exitDy=0;labelBackgroundColor=default;strokeColor=default;strokeWidth=1;fontFamily=Helvetica;fontSize=11;fontColor=default;endArrow=none;endFill=0;" parent="1" source="QEcMw-lRMphkw9W2kkEJ-3" edge="1">
          <mxGeometry relative="1" as="geometry">
            <mxPoint x="470" y="420" as="sourcePoint" />
            <mxPoint x="410" y="550" as="targetPoint" />
          </mxGeometry>
        </mxCell>
        <mxCell id="QEcMw-lRMphkw9W2kkEJ-79" style="edgeStyle=orthogonalEdgeStyle;shape=connector;rounded=0;orthogonalLoop=1;jettySize=auto;html=1;exitX=1;exitY=0.5;exitDx=0;exitDy=0;exitPerimeter=0;labelBackgroundColor=default;strokeColor=default;strokeWidth=1;fontFamily=Helvetica;fontSize=18;fontColor=default;endArrow=none;endFill=0;entryX=0;entryY=0.5;entryDx=0;entryDy=0;" parent="1" source="QEcMw-lRMphkw9W2kkEJ-74" target="QEcMw-lRMphkw9W2kkEJ-4" edge="1">
          <mxGeometry relative="1" as="geometry">
            <mxPoint x="590" y="580" as="targetPoint" />
          </mxGeometry>
        </mxCell>
        <mxCell id="QEcMw-lRMphkw9W2kkEJ-80" value="(1,1)" style="edgeLabel;html=1;align=center;verticalAlign=middle;resizable=0;points=[];fontSize=18;fontFamily=Helvetica;fontColor=default;" parent="QEcMw-lRMphkw9W2kkEJ-79" connectable="0" vertex="1">
          <mxGeometry x="0.2" relative="1" as="geometry">
            <mxPoint x="18" as="offset" />
          </mxGeometry>
        </mxCell>
        <mxCell id="QEcMw-lRMphkw9W2kkEJ-86" value="" style="edgeStyle=orthogonalEdgeStyle;shape=connector;rounded=1;orthogonalLoop=1;jettySize=auto;html=1;labelBackgroundColor=default;strokeColor=default;strokeWidth=1;fontFamily=Helvetica;fontSize=18;fontColor=default;endArrow=none;endFill=0;" parent="1" source="QEcMw-lRMphkw9W2kkEJ-74" target="QEcMw-lRMphkw9W2kkEJ-3" edge="1">
          <mxGeometry relative="1" as="geometry" />
        </mxCell>
        <mxCell id="QEcMw-lRMphkw9W2kkEJ-88" value="(0,n)" style="edgeLabel;html=1;align=center;verticalAlign=middle;resizable=0;points=[];fontSize=18;fontFamily=Helvetica;fontColor=default;" parent="QEcMw-lRMphkw9W2kkEJ-86" connectable="0" vertex="1">
          <mxGeometry x="0.5779" relative="1" as="geometry">
            <mxPoint y="7" as="offset" />
          </mxGeometry>
        </mxCell>
        <mxCell id="QEcMw-lRMphkw9W2kkEJ-74" value="" style="strokeWidth=1;html=1;shape=mxgraph.flowchart.decision;whiteSpace=wrap;strokeColor=#33FF33;" parent="1" vertex="1">
          <mxGeometry x="380" y="560" width="60" height="40" as="geometry" />
        </mxCell>
        <mxCell id="iTK9fJuJbBGp3X5oRMWE-1" value="id" style="strokeWidth=4;html=1;shape=mxgraph.flowchart.start_1;whiteSpace=wrap;fontFamily=Helvetica;fontSize=11;fontColor=default;strokeColor=#f9ab24;" parent="1" vertex="1">
          <mxGeometry x="490" y="470" width="80" height="50" as="geometry" />
        </mxCell>
      </root>
    </mxGraphModel>
  </diagram>
</mxfile>
